<svg version="1.2" xmlns="http://www.w3.org/2000/svg" viewBox="0 0 512 512" width="512" height="512">
	<title>snigdhaos-face</title>
	<style>
		.s0 { fill: #ffffff } 
		.s1 { fill: #754ffe } 
	</style>
	<filter id="f0">
		<feFlood flood-color="#754ffe" flood-opacity="1" />
		<feBlend mode="normal" in2="SourceGraphic"/>
		<feComposite in2="SourceAlpha" operator="in" />
	</filter>
	<g id="Folder 1" filter="url(#f0)">
		<path id="Layer" fill-rule="evenodd" class="s0" d="m224.1 312.9l31.7-31.7 31.7 31.7 31.7 31.7-63.4 63.4q-92.4-92.4-184.8-184.8 0-95.1 0-190.2l121.4 121.4-31.7 31.7-44.9-44.9v63.5l108.3 108.2z"/>
		<path id="Layer" fill-rule="evenodd" class="s0" d="m319.2 154.4l121.4-121.4q0 95.1 0 190.2-44.9 44.9-89.7 89.7l-95.1-95.1-31.7 31.7-31.7-31.7 63.4-63.4 95.1 95.1 44.8-44.8v-63.5l-44.8 44.9z"/>
	</g>
	<path id="SNIGDHA OS" class="s1" aria-label="SNIGDHA OS"  d="m101.5 425.5h0.7v17.3q0 0.9 0.4 1.4 0.5 0.4 2.1 0.4h4.5v5.7h-7.7q-3.4 0-5.5-0.7-2.1-0.7-3.1-2.5-1-1.9-1.3-4-0.2-2.1-0.2-5.7 0-3.6 0.2-5.5 0.3-1.8 1.3-3.5 1-1.6 3.1-2.3 2.1-0.6 5.5-0.6zm10.1 43.5v-24.4h0.7q2.6 0 4 0.1 1.4 0.1 2.7 0.6 1.4 0.4 1.9 1 0.5 0.6 0.9 2.1 0.5 1.4 0.6 3.1 0 1.7 0 4.8 0 3.2 0 5-0.1 1.9-0.6 3.5-0.4 1.7-0.9 2.3-0.5 0.7-1.9 1.2-1.3 0.5-2.7 0.6-1.4 0.1-4 0.1zm-19.4-13.4h7.6q0.9 0 1.1 0.2 0.1 0.2 0.1 1v4.7q0 1 0.3 1.4 0.3 0.4 1.4 0.4h6.5v5.7h-8.9q-4.4 0-6.7-1.5-2.2-1.5-2.2-5.3v-5.4q0-1.2 0.8-1.2zm12.5-24.5v-5.7h7.6q4.4 0 6.6 1.5 2.3 1.5 2.3 5.3v5.4q0 1.3-0.8 1.3h-7.6q-0.8 0-1-0.3-0.2-0.2-0.2-1v-4.7q0-1-0.3-1.3-0.3-0.5-1.3-0.5zm52-5.7h6.3v40.2q0 2.1-0.6 2.7-0.7 0.7-2.7 0.7h-8.6q-3.5 0-4.7-1.1-1-1.1-1.9-5.6-1.7-8.9-4.9-28.8-0.2-1.5-0.7-1.9-0.4-0.5-1.5-0.5h-7.4v-5.7h13.1q1.5 0 2.4 0.4 0.9 0.3 1.4 1.5 0.6 1.2 0.8 2.3 0.2 1.1 0.5 2.5 0.3 1.8 0.8 5.1 1.1 6.8 3.2 19.3 0.9 5.3 1.2 5.9 0.3 0.6 1.2 0.8v-35.4q0-1.1 0.6-1.7 0.6-0.7 1.5-0.7zm-26.7 43.6v-35.8h6.3q0.9 0 1.5 0.7 0.6 0.6 0.6 1.7v30q0 2-0.5 2.7-0.6 0.7-2.2 0.7zm51.3-43.6v43.6h-6.3q-2.1 0-2.7-0.7-0.6-0.6-0.6-2.7v-36.7q0-2.2 0.6-2.8 0.6-0.7 2.7-0.7zm18.2 0h0.8v36.1q0 0.9 0.4 1.4 0.5 0.4 2 0.4h4.5v5.7h-7.7q-2.4 0-4-0.4-1.6-0.3-2.8-1.4-1.1-1.2-1.8-2.5-0.6-1.4-0.9-4.2-0.6-4.2-0.6-11.2 0-7 0.1-9.9 0.1-2.9 0.5-5.6 0.3-2.8 0.9-4.1 0.7-1.4 1.8-2.5 1.2-1.1 2.8-1.4 1.6-0.4 4-0.4zm3.2 25.6v-5.7h10.6q5.9 0 5.9 5.4v12.5q0 3.8-0.6 4.8-0.6 1-3.3 1h-5.7v-16.3q0-0.9-0.3-1.3-0.2-0.4-1.3-0.4zm0-19.9v-5.7h7.6q4.4 0 6.7 1.5 2.3 1.5 2.3 5.3v5.4q0 1.3-0.9 1.3h-7.6q-0.8 0-1-0.3-0.2-0.2-0.2-1v-4.7q0-1-0.3-1.3-0.2-0.5-1.3-0.5zm53.3 4.2l-0.2 11.8 0.1 10.2q0 7.2-1.8 9.5-1.8 2.2-6.6 2.2h-8.8v-5.7h4.4q1.5 0 2-0.4 0.5-0.3 0.5-1.4v-28.5q0-1.1-0.5-1.5-0.5-0.4-2-0.4h-4.4v-5.7h9.4q4.4 0 6.1 2.1 1.8 2 1.8 7.8zm-19.1-9.9v43.7h-6.4q-2 0-2.6-0.7-0.7-0.7-0.7-2.8v-36.7q0-2.1 0.7-2.8 0.6-0.7 2.6-0.7zm43.7 17.7v5.7h-6.6v20.2h-6.3q-2.1 0-2.7-0.7-0.6-0.6-0.6-2.7v-40.2h7.4q1 0 1.6 0.7 0.6 0.6 0.6 1.7v15.3zm2.4 23.5v-41.2h6.3q2.1 0 2.7 0.7 0.7 0.6 0.7 2.8v40.1h-7.5q-1 0-1.6-0.7-0.6-0.6-0.6-1.7zm34.5-41.2v5.7h-5.6q-1 0-1 0.5v37.4h-6.3q-2.1 0-2.7-0.7-0.6-0.6-0.6-2.7v-36.7q0-2.2 0.6-2.8 0.6-0.7 2.7-0.7zm2.4 17.7v-17.7h6.3q2.1 0 2.7 0.7 0.6 0.6 0.6 2.8v36.6q0 2.1-0.6 2.8-0.7 0.7-2.7 0.7h-6.3v-20.2h-6.6v-5.7zm40.3-17.7h0.7v36.1q0 0.9 0.4 1.4 0.5 0.4 2.1 0.4h4.5v5.7h-7.7q-2.4 0-4-0.4-1.6-0.3-2.8-1.4-1.2-1.2-1.8-2.5-0.6-1.4-1-4.2-0.5-4.2-0.5-11.2 0-7 0-9.9 0.2-2.9 0.5-5.6 0.4-2.8 1-4.1 0.6-1.4 1.8-2.5 1.2-1.1 2.8-1.4 1.6-0.4 4-0.4zm3.1 5.8v-5.7h7.7q2.4 0 4 0.3 1.6 0.4 2.7 1.5 1.2 1.1 1.8 2.5 0.7 1.4 1.1 4.2 0.5 4.1 0.5 11.2 0 7-0.1 9.9-0.1 2.9-0.4 5.6-0.4 2.8-1.1 4.1-0.6 1.4-1.8 2.5-1.1 1.1-2.7 1.5-1.6 0.3-4 0.3h-0.7v-36.1q0-1-0.5-1.4-0.4-0.4-2-0.4zm35.1-5.7h0.7v17.3q0 0.9 0.4 1.4 0.5 0.4 2.1 0.4h4.4v5.7h-7.6q-3.5 0-5.6-0.7-2-0.7-3-2.5-1-1.9-1.3-4-0.3-2.1-0.3-5.7 0-3.6 0.3-5.5 0.3-1.8 1.3-3.5 1-1.6 3-2.3 2.1-0.6 5.6-0.6zm10 43.5v-24.4h0.8q2.6 0 3.9 0.1 1.5 0.1 2.8 0.6 1.3 0.4 1.8 1 0.6 0.6 1 2.1 0.5 1.4 0.5 3.1 0.1 1.7 0.1 4.8 0 3.2-0.1 5 0 1.9-0.5 3.5-0.4 1.7-1 2.3-0.5 0.7-1.8 1.2-1.3 0.5-2.8 0.6-1.3 0.1-3.9 0.1zm-19.4-13.4h7.6q0.9 0 1 0.2 0.2 0.2 0.2 1v4.7q0 1 0.3 1.4 0.3 0.4 1.3 0.4h6.6v5.7h-8.9q-4.4 0-6.7-1.5-2.2-1.5-2.2-5.3v-5.4q0-1.2 0.8-1.2zm12.4-24.5v-5.7h7.7q4.4 0 6.6 1.5 2.3 1.5 2.3 5.3v5.4q0 1.3-0.8 1.3h-7.6q-0.9 0-1.1-0.3-0.1-0.2-0.1-1v-4.7q0-1-0.3-1.3-0.3-0.5-1.4-0.5z"/>
</svg>
